<svg id="svg" version="1.1" xmlns="http://www.w3.org/2000/svg" xmlns:xlink="http://www.w3.org/1999/xlink" width="400" height="400" viewBox="0, 0, 400,400"><g id="svgg"><path id="path0" d="M186.417 20.043 C 87.901 27.118,13.093 113.773,20.013 212.800 C 23.429 261.672,48.327 309.883,85.400 339.407 C 86.500 340.283,87.490 341.097,87.600 341.216 C 88.218 341.885,96.079 347.543,100.200 350.286 C 156.027 387.440,228.118 390.490,286.863 358.182 C 294.950 353.734,310.278 343.553,312.400 341.220 C 312.510 341.099,313.500 340.280,314.600 339.401 C 335.324 322.829,356.732 294.265,366.167 270.600 C 379.401 237.406,383.301 207.078,378.564 174.200 C 370.867 120.770,341.092 75.611,294.000 45.942 C 263.753 26.886,224.091 17.338,186.417 20.043 M210.600 48.199 C 213.460 48.316,216.880 48.577,218.200 48.777 C 219.520 48.978,222.580 49.440,225.000 49.803 C 281.009 58.217,330.135 101.739,346.165 157.145 C 370.625 241.687,319.216 329.106,233.600 348.557 C 229.433 349.504,226.526 350.006,218.286 351.206 C 209.536 352.480,190.464 352.480,181.714 351.206 C 170.204 349.530,165.297 348.524,157.145 346.165 C 101.700 330.123,58.223 281.048,49.803 225.000 C 49.440 222.580,48.979 219.520,48.780 218.200 C 48.581 216.880,48.231 212.245,48.002 207.900 C 47.584 199.969,47.964 187.211,48.780 181.800 C 48.979 180.480,49.440 177.420,49.803 175.000 C 58.754 115.418,106.219 65.124,166.400 51.454 C 170.606 50.498,173.433 50.010,182.000 48.758 C 185.649 48.225,197.804 47.683,202.200 47.858 C 203.960 47.927,207.740 48.081,210.600 48.199 " stroke="none" fill="#1c84d4" fill-rule="evenodd"></path><path id="path1" d="M282.268 138.630 C 280.985 139.377,277.925 141.048,275.468 142.344 C 273.011 143.641,269.740 145.383,268.200 146.216 C 266.660 147.049,264.860 148.002,264.200 148.333 C 263.540 148.664,260.796 150.164,258.102 151.667 C 255.408 153.170,253.095 154.400,252.962 154.400 C 252.829 154.400,250.983 155.367,248.860 156.548 C 246.737 157.730,243.290 159.599,241.200 160.702 C 239.110 161.805,236.140 163.387,234.600 164.219 C 233.060 165.050,230.540 166.397,229.000 167.212 C 227.460 168.027,224.693 169.527,222.851 170.547 C 221.010 171.566,219.424 172.400,219.328 172.400 C 219.233 172.400,216.554 173.840,213.376 175.600 C 210.197 177.360,207.501 178.800,207.385 178.800 C 207.268 178.800,205.783 179.587,204.086 180.549 C 201.201 182.183,194.655 185.673,189.600 188.270 C 188.390 188.891,187.268 189.580,187.106 189.800 C 186.944 190.020,186.809 196.618,186.806 204.462 L 186.800 218.724 188.500 219.711 C 189.435 220.254,192.180 221.734,194.600 223.001 C 197.020 224.267,200.737 226.270,202.860 227.451 C 204.983 228.633,206.812 229.600,206.924 229.600 C 207.036 229.600,208.359 230.295,209.864 231.144 C 211.369 231.993,214.130 233.501,216.000 234.496 C 221.143 237.232,226.368 240.045,228.600 241.280 C 229.700 241.889,231.036 242.577,231.570 242.810 C 232.103 243.043,234.263 244.192,236.370 245.364 C 240.093 247.436,242.706 248.838,251.000 253.214 C 253.200 254.375,257.391 256.647,260.313 258.262 C 263.236 259.878,265.705 261.200,265.800 261.200 C 265.895 261.200,268.595 262.640,271.800 264.400 C 275.005 266.160,277.688 267.600,277.762 267.600 C 277.836 267.600,279.559 268.517,281.591 269.638 C 283.622 270.758,285.429 271.523,285.605 271.338 C 285.782 271.152,287.221 268.750,288.803 266.000 C 291.749 260.880,295.015 255.229,297.447 251.042 C 298.201 249.745,298.768 248.634,298.707 248.574 C 298.646 248.513,296.977 247.619,294.998 246.587 C 293.019 245.556,290.680 244.303,289.800 243.804 C 288.920 243.304,286.220 241.860,283.800 240.595 C 278.369 237.756,273.026 234.938,269.600 233.107 C 268.170 232.342,264.480 230.405,261.400 228.801 C 258.320 227.197,255.620 225.753,255.400 225.591 C 255.180 225.430,252.930 224.219,250.400 222.901 C 246.070 220.645,242.343 218.680,235.800 215.203 C 234.260 214.384,230.480 212.403,227.400 210.800 C 224.320 209.197,221.620 207.753,221.400 207.593 C 221.180 207.432,219.687 206.626,218.081 205.802 C 216.476 204.978,215.216 204.259,215.281 204.205 C 215.347 204.150,218.370 202.579,222.000 200.712 C 225.630 198.846,231.300 195.876,234.600 194.112 C 242.348 189.972,246.848 187.586,251.800 184.994 C 254.000 183.843,256.790 182.366,258.000 181.712 C 259.210 181.058,262.540 179.302,265.400 177.810 C 268.260 176.318,271.140 174.783,271.800 174.400 C 272.460 174.017,275.340 172.483,278.200 170.991 C 281.060 169.500,284.570 167.659,286.000 166.900 C 287.430 166.141,290.670 164.434,293.200 163.107 C 299.392 159.859,299.120 160.483,296.381 155.800 C 293.414 150.728,290.378 145.494,289.588 144.088 C 285.285 136.432,285.617 136.679,282.268 138.630 " stroke="none" fill="#646464" fill-rule="evenodd"></path><path id="path2" d="M188.004 12.268 C 185.916 12.359,184.035 12.605,183.824 12.816 C 183.613 13.027,182.638 13.200,181.659 13.200 C 179.017 13.200,168.724 14.384,167.800 14.795 C 167.360 14.990,165.020 15.455,162.600 15.829 C 160.180 16.202,158.020 16.644,157.800 16.812 C 157.580 16.979,155.870 17.414,154.000 17.778 C 152.130 18.141,150.240 18.601,149.800 18.799 C 149.360 18.998,147.830 19.456,146.400 19.817 C 144.970 20.179,143.440 20.631,143.000 20.822 C 142.560 21.013,141.120 21.468,139.800 21.833 C 138.480 22.198,137.220 22.622,137.000 22.775 C 136.780 22.928,135.520 23.396,134.200 23.814 C 132.880 24.232,131.445 24.805,131.011 25.087 C 130.577 25.369,129.993 25.600,129.713 25.600 C 129.433 25.600,127.839 26.230,126.172 27.000 C 124.505 27.770,123.038 28.400,122.912 28.400 C 122.476 28.400,108.273 35.636,107.176 36.417 C 106.571 36.848,105.922 37.200,105.733 37.200 C 105.544 37.200,104.454 37.830,103.310 38.600 C 102.167 39.370,101.136 40.000,101.020 40.000 C 100.903 40.000,99.625 40.810,98.179 41.800 C 96.733 42.790,95.438 43.600,95.302 43.600 C 95.166 43.600,93.763 44.590,92.183 45.800 C 90.603 47.010,89.178 48.000,89.017 48.000 C 88.855 48.000,86.815 49.575,84.484 51.500 C 82.153 53.425,80.019 55.090,79.742 55.200 C 77.735 55.998,55.998 77.735,55.200 79.742 C 55.090 80.019,53.425 82.153,51.500 84.484 C 49.575 86.815,48.000 88.855,48.000 89.017 C 48.000 89.178,47.010 90.603,45.800 92.183 C 44.590 93.763,43.600 95.166,43.600 95.302 C 43.600 95.438,42.790 96.733,41.800 98.179 C 40.810 99.625,40.000 100.903,40.000 101.020 C 40.000 101.136,39.370 102.167,38.600 103.310 C 37.830 104.454,37.200 105.544,37.200 105.733 C 37.200 105.922,36.843 106.577,36.408 107.189 C 35.613 108.306,28.000 123.293,28.000 123.741 C 28.000 123.872,27.460 125.159,26.800 126.600 C 26.140 128.041,25.600 129.445,25.600 129.721 C 25.600 129.997,25.369 130.577,25.087 131.011 C 24.805 131.445,24.232 132.880,23.814 134.200 C 23.396 135.520,22.928 136.780,22.775 137.000 C 22.622 137.220,22.198 138.480,21.833 139.800 C 21.468 141.120,21.013 142.560,20.822 143.000 C 20.631 143.440,20.179 144.970,19.817 146.400 C 19.456 147.830,18.998 149.360,18.799 149.800 C 18.601 150.240,18.141 152.130,17.778 154.000 C 17.414 155.870,16.979 157.580,16.812 157.800 C 16.644 158.020,16.202 160.180,15.829 162.600 C 15.455 165.020,14.990 167.360,14.795 167.800 C 14.384 168.724,13.200 179.017,13.200 181.659 C 13.200 182.638,12.975 183.665,12.700 183.940 C 11.975 184.665,11.975 215.335,12.700 216.060 C 12.975 216.335,13.200 217.362,13.200 218.341 C 13.200 220.983,14.384 231.276,14.795 232.200 C 14.990 232.640,15.455 234.980,15.829 237.400 C 16.202 239.820,16.644 241.980,16.812 242.200 C 16.979 242.420,17.414 244.130,17.778 246.000 C 18.141 247.870,18.601 249.760,18.799 250.200 C 18.998 250.640,19.456 252.170,19.817 253.600 C 20.179 255.030,20.631 256.560,20.822 257.000 C 21.013 257.440,21.468 258.880,21.833 260.200 C 22.198 261.520,22.622 262.780,22.775 263.000 C 22.928 263.220,23.396 264.480,23.814 265.800 C 24.232 267.120,24.805 268.555,25.087 268.989 C 25.369 269.423,25.600 270.003,25.600 270.279 C 25.600 270.555,26.140 271.959,26.800 273.400 C 27.460 274.841,28.000 276.128,28.000 276.259 C 28.000 276.707,35.613 291.694,36.408 292.811 C 36.843 293.423,37.200 294.078,37.200 294.267 C 37.200 294.456,37.830 295.546,38.600 296.690 C 39.370 297.833,40.000 298.864,40.000 298.980 C 40.000 299.097,40.810 300.375,41.800 301.821 C 42.790 303.267,43.600 304.562,43.600 304.698 C 43.600 304.834,44.590 306.237,45.800 307.817 C 47.010 309.397,48.000 310.822,48.000 310.983 C 48.000 311.145,49.575 313.185,51.500 315.516 C 53.425 317.847,55.090 319.981,55.200 320.258 C 55.998 322.265,77.735 344.002,79.742 344.800 C 80.019 344.910,82.153 346.575,84.484 348.500 C 86.815 350.425,88.855 352.000,89.017 352.000 C 89.178 352.000,90.603 352.990,92.183 354.200 C 93.763 355.410,95.166 356.400,95.302 356.400 C 95.438 356.400,96.733 357.210,98.179 358.200 C 99.625 359.190,100.903 360.000,101.020 360.000 C 101.136 360.000,102.167 360.630,103.310 361.400 C 104.454 362.170,105.544 362.800,105.733 362.800 C 105.922 362.800,106.571 363.152,107.176 363.583 C 108.273 364.364,122.476 371.600,122.912 371.600 C 123.038 371.600,124.505 372.230,126.172 373.000 C 127.839 373.770,129.433 374.400,129.713 374.400 C 129.993 374.400,130.577 374.631,131.011 374.913 C 131.445 375.195,132.880 375.768,134.200 376.186 C 135.520 376.604,136.780 377.072,137.000 377.225 C 137.220 377.378,138.480 377.802,139.800 378.167 C 141.120 378.532,142.560 378.987,143.000 379.178 C 143.440 379.369,144.970 379.821,146.400 380.183 C 147.830 380.544,149.360 381.002,149.800 381.201 C 150.240 381.399,152.130 381.859,154.000 382.222 C 155.870 382.586,157.580 383.021,157.800 383.188 C 158.020 383.356,160.180 383.798,162.600 384.171 C 165.020 384.545,167.360 385.010,167.800 385.205 C 168.724 385.616,179.017 386.800,181.659 386.800 C 182.638 386.800,183.665 387.025,183.940 387.300 C 184.665 388.025,215.335 388.025,216.060 387.300 C 216.335 387.025,217.362 386.800,218.341 386.800 C 220.983 386.800,231.276 385.616,232.200 385.205 C 232.640 385.010,234.980 384.545,237.400 384.171 C 239.820 383.798,241.980 383.356,242.200 383.188 C 242.420 383.021,244.130 382.586,246.000 382.222 C 247.870 381.859,249.760 381.399,250.200 381.201 C 250.640 381.002,252.170 380.544,253.600 380.183 C 255.030 379.821,256.560 379.369,257.000 379.178 C 257.440 378.987,258.880 378.532,260.200 378.167 C 261.520 377.802,262.780 377.378,263.000 377.225 C 263.220 377.072,264.480 376.604,265.800 376.186 C 267.120 375.768,268.555 375.195,268.989 374.913 C 269.423 374.631,270.007 374.400,270.287 374.400 C 270.567 374.400,272.161 373.770,273.828 373.000 C 275.495 372.230,276.962 371.600,277.088 371.600 C 277.524 371.600,291.727 364.364,292.824 363.583 C 293.429 363.152,294.078 362.800,294.267 362.800 C 294.456 362.800,295.546 362.170,296.690 361.400 C 297.833 360.630,298.864 360.000,298.980 360.000 C 299.097 360.000,300.375 359.190,301.821 358.200 C 303.267 357.210,304.562 356.400,304.698 356.400 C 304.834 356.400,306.237 355.410,307.817 354.200 C 309.397 352.990,310.822 352.000,310.983 352.000 C 311.145 352.000,313.185 350.425,315.516 348.500 C 317.847 346.575,319.981 344.910,320.258 344.800 C 322.265 344.002,344.002 322.265,344.800 320.258 C 344.910 319.981,346.575 317.847,348.500 315.516 C 350.425 313.185,352.000 311.145,352.000 310.983 C 352.000 310.822,352.990 309.397,354.200 307.817 C 355.410 306.237,356.400 304.834,356.400 304.698 C 356.400 304.562,357.210 303.267,358.200 301.821 C 359.190 300.375,360.000 299.097,360.000 298.980 C 360.000 298.864,360.630 297.833,361.400 296.690 C 362.170 295.546,362.800 294.456,362.800 294.267 C 362.800 294.078,363.157 293.423,363.592 292.811 C 364.387 291.694,372.000 276.707,372.000 276.259 C 372.000 276.128,372.540 274.841,373.200 273.400 C 373.860 271.959,374.400 270.555,374.400 270.279 C 374.400 270.003,374.631 269.423,374.913 268.989 C 375.195 268.555,375.768 267.120,376.186 265.800 C 376.604 264.480,377.072 263.220,377.225 263.000 C 377.378 262.780,377.802 261.520,378.167 260.200 C 378.532 258.880,378.987 257.440,379.178 257.000 C 379.369 256.560,379.821 255.030,380.183 253.600 C 380.544 252.170,381.002 250.640,381.201 250.200 C 381.399 249.760,381.859 247.870,382.222 246.000 C 382.586 244.130,383.021 242.420,383.188 242.200 C 383.356 241.980,383.798 239.820,384.171 237.400 C 384.545 234.980,385.010 232.640,385.205 232.200 C 385.599 231.313,386.800 221.028,386.800 218.541 C 386.800 217.672,387.025 216.735,387.300 216.460 C 388.025 215.735,388.025 184.265,387.300 183.540 C 387.025 183.265,386.800 182.328,386.800 181.459 C 386.800 178.972,385.599 168.687,385.205 167.800 C 385.010 167.360,384.545 165.020,384.171 162.600 C 383.798 160.180,383.356 158.020,383.188 157.800 C 383.021 157.580,382.586 155.870,382.222 154.000 C 381.859 152.130,381.399 150.240,381.201 149.800 C 381.002 149.360,380.544 147.830,380.183 146.400 C 379.821 144.970,379.369 143.440,379.178 143.000 C 378.987 142.560,378.532 141.120,378.167 139.800 C 377.802 138.480,377.378 137.220,377.225 137.000 C 377.072 136.780,376.604 135.520,376.186 134.200 C 375.768 132.880,375.195 131.445,374.913 131.011 C 374.631 130.577,374.400 129.997,374.400 129.721 C 374.400 129.445,373.860 128.041,373.200 126.600 C 372.540 125.159,372.000 123.872,372.000 123.741 C 372.000 123.293,364.387 108.306,363.592 107.189 C 363.157 106.577,362.800 105.922,362.800 105.733 C 362.800 105.544,362.170 104.454,361.400 103.310 C 360.630 102.167,360.000 101.136,360.000 101.020 C 360.000 100.903,359.190 99.625,358.200 98.179 C 357.210 96.733,356.400 95.438,356.400 95.302 C 356.400 95.166,355.410 93.763,354.200 92.183 C 352.990 90.603,352.000 89.178,352.000 89.017 C 352.000 88.855,350.425 86.815,348.500 84.484 C 346.575 82.153,344.910 80.019,344.800 79.742 C 344.002 77.735,322.265 55.998,320.258 55.200 C 319.981 55.090,317.847 53.425,315.516 51.500 C 313.185 49.575,311.145 48.000,310.983 48.000 C 310.822 48.000,309.397 47.010,307.817 45.800 C 306.237 44.590,304.834 43.600,304.698 43.600 C 304.562 43.600,303.267 42.790,301.821 41.800 C 300.375 40.810,299.097 40.000,298.980 40.000 C 298.864 40.000,297.833 39.370,296.690 38.600 C 295.546 37.830,294.456 37.200,294.267 37.200 C 294.078 37.200,293.429 36.848,292.824 36.417 C 291.727 35.636,277.524 28.400,277.088 28.400 C 276.962 28.400,275.495 27.770,273.828 27.000 C 272.161 26.230,270.567 25.600,270.287 25.600 C 270.007 25.600,269.423 25.369,268.989 25.087 C 268.555 24.805,267.120 24.232,265.800 23.814 C 264.480 23.396,263.220 22.928,263.000 22.775 C 262.780 22.622,261.520 22.198,260.200 21.833 C 258.880 21.468,257.440 21.013,257.000 20.822 C 256.560 20.631,255.030 20.179,253.600 19.817 C 252.170 19.456,250.640 18.998,250.200 18.799 C 249.760 18.601,247.870 18.141,246.000 17.778 C 244.130 17.414,242.420 16.979,242.200 16.812 C 241.980 16.644,239.820 16.202,237.400 15.829 C 234.980 15.455,232.640 14.990,232.200 14.795 C 231.276 14.384,220.983 13.200,218.341 13.200 C 217.362 13.200,216.374 13.014,216.146 12.786 C 215.710 12.350,194.956 11.968,188.004 12.268 M212.800 20.022 C 259.320 23.345,302.117 44.164,333.628 78.800 C 379.289 128.989,392.847 200.975,368.584 264.400 C 365.794 271.692,364.922 273.654,361.204 281.000 C 349.749 303.632,332.853 324.805,314.600 339.401 C 313.500 340.280,312.510 341.099,312.400 341.220 C 310.278 343.553,294.950 353.734,286.863 358.182 C 228.118 390.490,156.027 387.440,100.200 350.286 C 96.079 347.543,88.218 341.885,87.600 341.216 C 87.490 341.097,86.500 340.283,85.400 339.407 C 51.772 312.626,27.672 269.764,21.411 225.600 C 5.263 111.700,98.232 11.839,212.800 20.022 M192.000 48.025 C 188.150 48.187,183.650 48.517,182.000 48.758 C 173.433 50.010,170.606 50.498,166.400 51.454 C 106.219 65.124,58.754 115.418,49.803 175.000 C 49.440 177.420,48.979 180.480,48.780 181.800 C 48.581 183.120,48.231 187.755,48.002 192.100 C 47.584 200.031,47.964 212.789,48.780 218.200 C 48.979 219.520,49.440 222.580,49.803 225.000 C 58.223 281.048,101.700 330.123,157.145 346.165 C 165.297 348.524,170.204 349.530,181.714 351.206 C 190.464 352.480,209.536 352.480,218.286 351.206 C 226.526 350.006,229.433 349.504,233.600 348.557 C 319.216 329.106,370.625 241.687,346.165 157.145 C 330.135 101.739,281.009 58.217,225.000 49.803 C 222.580 49.440,219.520 48.978,218.200 48.777 C 216.053 48.451,213.577 48.309,202.200 47.858 C 200.440 47.788,195.850 47.863,192.000 48.025 M219.200 56.375 C 221.290 56.629,223.313 57.009,223.695 57.218 C 224.077 57.428,224.838 57.600,225.386 57.600 C 226.669 57.600,232.755 58.757,233.800 59.200 C 234.240 59.386,235.950 59.836,237.600 60.200 C 239.250 60.564,240.960 61.021,241.400 61.215 C 241.840 61.410,243.280 61.868,244.600 62.233 C 245.920 62.598,247.180 63.018,247.400 63.166 C 247.620 63.314,248.790 63.760,250.000 64.157 C 251.210 64.554,253.010 65.247,254.000 65.698 C 254.990 66.148,256.520 66.830,257.400 67.212 C 262.104 69.257,270.165 73.413,273.468 75.496 C 274.605 76.213,275.634 76.800,275.755 76.800 C 275.876 76.800,277.069 77.565,278.407 78.500 C 279.745 79.435,281.144 80.380,281.516 80.600 C 281.888 80.820,283.764 82.215,285.685 83.700 C 287.606 85.185,289.297 86.400,289.443 86.400 C 290.805 86.400,313.600 109.203,313.600 110.566 C 313.600 110.707,314.815 112.394,316.300 114.315 C 317.785 116.236,319.180 118.112,319.400 118.484 C 319.620 118.856,320.565 120.255,321.500 121.593 C 322.435 122.931,323.200 124.113,323.200 124.221 C 323.200 124.328,323.692 125.177,324.293 126.108 C 326.076 128.869,330.862 138.158,332.789 142.600 C 333.171 143.480,333.852 145.010,334.302 146.000 C 334.753 146.990,335.446 148.790,335.843 150.000 C 336.240 151.210,336.689 152.380,336.840 152.600 C 336.990 152.820,337.431 154.170,337.820 155.600 C 338.208 157.030,338.648 158.380,338.798 158.600 C 338.948 158.820,339.385 160.440,339.768 162.200 C 340.151 163.960,340.616 165.760,340.802 166.200 C 341.273 167.317,342.400 173.372,342.400 174.785 C 342.400 175.427,342.555 176.048,342.744 176.165 C 344.663 177.352,344.663 222.648,342.744 223.835 C 342.555 223.952,342.400 224.573,342.400 225.215 C 342.400 226.628,341.273 232.683,340.802 233.800 C 340.616 234.240,340.151 236.040,339.768 237.800 C 339.385 239.560,338.948 241.180,338.798 241.400 C 338.648 241.620,338.208 242.970,337.820 244.400 C 337.431 245.830,336.990 247.180,336.840 247.400 C 336.689 247.620,336.240 248.790,335.843 250.000 C 335.446 251.210,334.753 253.010,334.302 254.000 C 333.852 254.990,333.171 256.520,332.789 257.400 C 330.862 261.842,326.076 271.131,324.293 273.892 C 323.692 274.823,323.200 275.672,323.200 275.779 C 323.200 275.887,322.435 277.069,321.500 278.407 C 320.565 279.745,319.620 281.144,319.400 281.516 C 319.180 281.888,317.785 283.764,316.300 285.685 C 314.815 287.606,313.600 289.293,313.600 289.434 C 313.600 290.797,290.805 313.600,289.443 313.600 C 289.297 313.600,287.606 314.815,285.685 316.300 C 283.764 317.785,281.888 319.180,281.516 319.400 C 281.144 319.620,279.745 320.565,278.407 321.500 C 277.069 322.435,275.876 323.200,275.755 323.200 C 275.634 323.200,274.605 323.787,273.468 324.504 C 270.165 326.587,262.104 330.743,257.400 332.788 C 256.520 333.170,254.990 333.852,254.000 334.302 C 253.010 334.753,251.210 335.446,250.000 335.843 C 248.790 336.240,247.620 336.689,247.400 336.840 C 247.180 336.990,245.830 337.431,244.400 337.820 C 242.970 338.208,241.620 338.648,241.400 338.798 C 241.180 338.948,239.560 339.385,237.800 339.768 C 236.040 340.151,234.240 340.616,233.800 340.802 C 232.683 341.273,226.628 342.400,225.215 342.400 C 224.573 342.400,223.952 342.555,223.835 342.744 C 222.648 344.663,177.352 344.663,176.165 342.744 C 176.048 342.555,175.427 342.400,174.785 342.400 C 173.372 342.400,167.317 341.273,166.200 340.802 C 165.760 340.616,163.960 340.151,162.200 339.768 C 160.440 339.385,158.820 338.948,158.600 338.798 C 158.380 338.648,157.030 338.208,155.600 337.820 C 154.170 337.431,152.820 336.990,152.600 336.840 C 152.380 336.689,151.210 336.240,150.000 335.843 C 148.790 335.446,146.990 334.753,146.000 334.302 C 145.010 333.852,143.480 333.170,142.600 332.788 C 137.896 330.743,129.835 326.587,126.532 324.504 C 125.395 323.787,124.366 323.200,124.245 323.200 C 124.124 323.200,122.931 322.435,121.593 321.500 C 120.255 320.565,118.856 319.620,118.484 319.400 C 118.112 319.180,116.236 317.785,114.315 316.300 C 112.394 314.815,110.703 313.600,110.557 313.600 C 109.195 313.600,86.400 290.797,86.400 289.434 C 86.400 289.293,85.185 287.606,83.700 285.685 C 82.215 283.764,80.820 281.888,80.600 281.516 C 80.380 281.144,79.435 279.745,78.500 278.407 C 77.565 277.069,76.800 275.887,76.800 275.779 C 76.800 275.672,76.308 274.823,75.707 273.892 C 73.924 271.131,69.138 261.842,67.211 257.400 C 66.829 256.520,66.148 254.990,65.698 254.000 C 65.247 253.010,64.554 251.210,64.157 250.000 C 63.760 248.790,63.311 247.620,63.160 247.400 C 63.010 247.180,62.569 245.830,62.180 244.400 C 61.792 242.970,61.352 241.620,61.202 241.400 C 61.052 241.180,60.615 239.560,60.232 237.800 C 59.849 236.040,59.384 234.240,59.198 233.800 C 58.727 232.683,57.600 226.628,57.600 225.215 C 57.600 224.573,57.445 223.952,57.256 223.835 C 55.337 222.648,55.337 177.352,57.256 176.165 C 57.445 176.048,57.600 175.427,57.600 174.785 C 57.600 173.372,58.727 167.317,59.198 166.200 C 59.384 165.760,59.849 163.960,60.232 162.200 C 60.615 160.440,61.052 158.820,61.202 158.600 C 61.352 158.380,61.792 157.030,62.180 155.600 C 62.569 154.170,63.010 152.820,63.160 152.600 C 63.311 152.380,63.760 151.210,64.157 150.000 C 64.554 148.790,65.247 146.990,65.698 146.000 C 66.148 145.010,66.829 143.480,67.211 142.600 C 69.138 138.158,73.924 128.869,75.707 126.108 C 76.308 125.177,76.800 124.328,76.800 124.221 C 76.800 124.113,77.565 122.931,78.500 121.593 C 79.435 120.255,80.380 118.856,80.600 118.484 C 80.820 118.112,82.215 116.236,83.700 114.315 C 85.185 112.394,86.400 110.707,86.400 110.566 C 86.400 109.203,109.195 86.400,110.557 86.400 C 110.703 86.400,112.394 85.185,114.315 83.700 C 116.236 82.215,118.112 80.820,118.484 80.600 C 118.856 80.380,120.255 79.435,121.593 78.500 C 122.931 77.565,124.124 76.800,124.245 76.800 C 124.366 76.800,125.395 76.213,126.532 75.496 C 129.835 73.413,137.896 69.257,142.600 67.212 C 143.480 66.830,145.010 66.148,146.000 65.698 C 146.990 65.247,148.790 64.554,150.000 64.157 C 151.210 63.760,152.380 63.314,152.600 63.166 C 152.820 63.018,154.080 62.598,155.400 62.233 C 156.720 61.868,158.160 61.410,158.600 61.215 C 159.040 61.021,160.750 60.564,162.400 60.200 C 164.050 59.836,165.760 59.386,166.200 59.200 C 167.313 58.728,173.368 57.600,174.785 57.600 C 175.427 57.600,176.050 57.443,176.169 57.251 C 176.287 57.059,178.773 56.685,181.692 56.420 C 184.612 56.156,187.360 55.877,187.800 55.802 C 189.679 55.478,215.733 55.953,219.200 56.375 M281.312 131.598 C 279.591 131.961,275.690 133.760,272.328 135.740 C 270.482 136.828,269.720 137.237,262.600 140.970 C 260.620 142.008,257.380 143.736,255.400 144.810 C 253.420 145.885,250.360 147.508,248.600 148.417 C 246.840 149.327,245.211 150.227,244.981 150.417 C 244.750 150.608,243.040 151.554,241.181 152.519 C 237.410 154.477,231.052 157.845,227.400 159.819 C 226.080 160.533,223.459 161.918,221.575 162.897 C 219.692 163.877,217.319 165.165,216.303 165.761 C 214.480 166.829,213.691 167.253,206.600 170.970 C 204.620 172.008,201.380 173.737,199.400 174.813 C 197.420 175.888,194.574 177.401,193.075 178.175 C 191.575 178.949,189.865 179.922,189.275 180.338 C 188.684 180.755,187.796 181.220,187.303 181.374 C 185.700 181.871,182.532 184.690,181.352 186.668 L 180.200 188.600 180.200 204.200 C 180.200 218.311,180.267 219.915,180.898 221.000 C 181.281 221.660,181.596 222.388,181.598 222.619 C 181.600 223.121,184.197 225.565,185.600 226.386 C 186.777 227.075,190.009 228.794,194.981 231.376 C 196.950 232.399,198.750 233.392,198.981 233.583 C 199.211 233.773,200.840 234.673,202.600 235.583 C 204.360 236.492,207.420 238.115,209.400 239.190 C 211.380 240.264,214.620 241.992,216.600 243.030 C 223.691 246.747,224.480 247.171,226.303 248.239 C 227.319 248.835,229.692 250.123,231.575 251.103 C 233.459 252.082,236.080 253.468,237.400 254.182 C 243.763 257.625,247.701 259.712,250.926 261.352 C 252.866 262.339,254.666 263.321,254.926 263.536 C 255.187 263.750,256.722 264.618,258.338 265.463 C 259.953 266.308,263.013 267.932,265.138 269.070 C 267.262 270.209,269.990 271.655,271.200 272.285 C 272.410 272.914,274.570 274.082,276.000 274.880 C 277.430 275.677,279.277 276.456,280.104 276.610 C 280.932 276.764,281.707 277.050,281.828 277.245 C 282.130 277.734,286.694 277.694,287.000 277.200 C 287.136 276.980,287.620 276.800,288.076 276.800 C 290.215 276.800,292.091 274.719,296.008 268.000 C 296.457 267.230,297.244 265.880,297.758 265.000 C 298.272 264.120,299.183 262.505,299.782 261.411 C 300.381 260.318,301.184 258.968,301.566 258.411 C 305.640 252.473,305.315 243.823,300.934 241.595 C 300.310 241.278,299.080 240.576,298.200 240.035 C 297.320 239.495,294.890 238.173,292.800 237.097 C 290.710 236.021,287.020 234.095,284.600 232.817 C 278.006 229.336,273.093 226.757,268.200 224.209 C 265.780 222.949,263.602 221.757,263.360 221.560 C 263.118 221.363,261.138 220.288,258.960 219.171 C 256.782 218.054,253.020 216.095,250.600 214.817 C 248.180 213.540,244.490 211.601,242.400 210.509 C 230.107 204.088,230.294 204.433,237.200 200.872 C 245.695 196.491,250.625 193.880,251.073 193.524 C 251.333 193.317,253.313 192.253,255.473 191.160 C 257.633 190.067,261.200 188.217,263.400 187.048 C 269.214 183.958,274.350 181.252,279.800 178.406 C 282.440 177.028,284.813 175.731,285.073 175.524 C 285.333 175.317,287.313 174.251,289.473 173.155 C 302.712 166.440,303.744 165.649,304.213 161.856 C 304.773 157.335,304.287 154.960,301.993 151.000 C 301.356 149.900,300.512 148.370,300.117 147.600 C 299.722 146.830,298.724 145.191,297.899 143.959 C 297.075 142.726,296.400 141.535,296.400 141.313 C 296.400 141.090,296.067 140.479,295.660 139.954 C 295.253 139.429,294.427 138.100,293.823 137.000 C 291.180 132.181,287.036 130.392,281.312 131.598 M287.271 140.100 C 288.209 141.695,289.252 143.490,289.588 144.088 C 290.378 145.494,293.414 150.728,296.381 155.800 C 299.120 160.483,299.392 159.859,293.200 163.107 C 290.670 164.434,287.430 166.141,286.000 166.900 C 284.570 167.659,281.060 169.500,278.200 170.991 C 275.340 172.483,272.460 174.017,271.800 174.400 C 271.140 174.783,268.260 176.318,265.400 177.810 C 262.540 179.302,259.210 181.058,258.000 181.712 C 256.790 182.366,254.000 183.843,251.800 184.994 C 246.848 187.586,242.348 189.972,234.600 194.112 C 231.300 195.876,225.630 198.846,222.000 200.712 C 218.370 202.579,215.347 204.150,215.281 204.205 C 215.216 204.259,216.476 204.978,218.081 205.802 C 219.687 206.626,221.180 207.432,221.400 207.593 C 221.620 207.753,224.320 209.197,227.400 210.800 C 230.480 212.403,234.260 214.384,235.800 215.203 C 242.343 218.680,246.070 220.645,250.400 222.901 C 252.930 224.219,255.180 225.430,255.400 225.591 C 255.620 225.753,258.320 227.197,261.400 228.801 C 264.480 230.405,268.170 232.342,269.600 233.107 C 273.026 234.938,278.369 237.756,283.800 240.595 C 286.220 241.860,288.920 243.304,289.800 243.804 C 290.680 244.303,293.019 245.556,294.998 246.587 C 296.977 247.619,298.646 248.513,298.707 248.574 C 298.768 248.634,298.201 249.745,297.447 251.042 C 295.015 255.229,291.749 260.880,288.803 266.000 C 287.221 268.750,285.782 271.152,285.605 271.338 C 285.429 271.523,283.622 270.758,281.591 269.638 C 279.559 268.517,277.836 267.600,277.762 267.600 C 277.688 267.600,275.005 266.160,271.800 264.400 C 268.595 262.640,265.895 261.200,265.800 261.200 C 265.705 261.200,263.236 259.878,260.313 258.262 C 257.391 256.647,253.200 254.375,251.000 253.214 C 242.706 248.838,240.093 247.436,236.370 245.364 C 234.263 244.192,232.103 243.043,231.570 242.810 C 231.036 242.577,229.700 241.889,228.600 241.280 C 226.368 240.045,221.143 237.232,216.000 234.496 C 214.130 233.501,211.369 231.993,209.864 231.144 C 208.359 230.295,207.036 229.600,206.924 229.600 C 206.812 229.600,204.983 228.633,202.860 227.451 C 200.737 226.270,197.020 224.267,194.600 223.001 C 192.180 221.734,189.435 220.254,188.500 219.711 L 186.800 218.724 186.806 204.462 C 186.809 196.618,186.944 190.020,187.106 189.800 C 187.268 189.580,188.390 188.891,189.600 188.270 C 194.655 185.673,201.201 182.183,204.086 180.549 C 205.783 179.587,207.268 178.800,207.385 178.800 C 207.501 178.800,210.197 177.360,213.376 175.600 C 216.554 173.840,219.233 172.400,219.328 172.400 C 219.424 172.400,221.010 171.566,222.851 170.547 C 224.693 169.527,227.460 168.027,229.000 167.212 C 230.540 166.397,233.060 165.050,234.600 164.219 C 236.140 163.387,239.110 161.805,241.200 160.702 C 243.290 159.599,246.737 157.730,248.860 156.548 C 250.983 155.367,252.829 154.400,252.962 154.400 C 253.095 154.400,255.408 153.170,258.102 151.667 C 260.796 150.164,263.540 148.664,264.200 148.333 C 264.860 148.002,266.660 147.049,268.200 146.216 C 269.740 145.383,273.011 143.641,275.468 142.344 C 277.925 141.048,280.985 139.377,282.268 138.630 C 285.391 136.811,285.324 136.791,287.271 140.100 " stroke="none" fill="#348cd4" fill-rule="evenodd"></path><path id="path3" d="" stroke="none" fill="#2474d8" fill-rule="evenodd"></path><path id="path4" d="" stroke="none" fill="#2474d8" fill-rule="evenodd"></path></g></svg>